# xmcd
#
# Track frame offsets: 
#        150
#        31247
#        47965
#        66785
#        82995
#        113882
#        142100
#        156190
#        189047
#        205787
#        230835
#        244250
#        273867
#        320165
#
# Disc length: 4526 seconds
#
# Revision: 0
# Processed by: cddbd v1.5.2PL0 Copyright (c) Steve Scherf et al.
# Submitted via: ExactAudioCopy v0.99pb4
#
DISCID=c611ac0e
DTITLE=The O'Jays - Collector's Items
DYEAR=1977
DGENRE=Soul
TTITLE0=Family Reunion
TTITLE1=Survival
TTITLE2=Give The People What They Want
TTITLE3=Let Me Make Love To You
TTITLE4=I Love Music
TTITLE5=Stairway To Heaven
TTITLE6=Back Stabbers
TTITLE7=For The Love Of Money
TTITLE8=Sunshine
TTITLE9=You Got Your Hooks In Me
TTITLE10=Love Train
TTITLE11=Livin' For The Weekend
TTITLE12=Wildflower
TTITLE13=Darlin' Darlin' Baby (Sweet, Tender Love)
EXTD=
EXTT0=
EXTT1=
EXTT2=
EXTT3=
EXTT4=
EXTT5=
EXTT6=
EXTT7=
EXTT8=
EXTT9=
EXTT10=
EXTT11=
EXTT12=
EXTT13=
PLAYORDER=
